<?xml version="1.0" standalone="no"?>
<!DOCTYPE svg PUBLIC "-//W3C//DTD SVG 20010904//EN"
 "http://www.w3.org/TR/2001/REC-SVG-20010904/DTD/svg10.dtd">
<svg version="1.0" xmlns="http://www.w3.org/2000/svg"
 width="1200.000000pt" height="1200.000000pt" viewBox="0 0 1200.000000 1200.000000"
 preserveAspectRatio="xMidYMid meet">
<metadata>
Created by potrace 1.11, written by Peter Selinger 2001-2013
</metadata>
<g transform="translate(0.000000,1200.000000) scale(0.100000,-0.100000)"
fill="#000000" stroke="none">
<path d="M5698 11995 c-2 -2 -50 -6 -108 -9 -58 -4 -123 -8 -145 -11 -186 -19
-256 -28 -335 -40 -14 -2 -56 -9 -94 -15 -87 -14 -234 -43 -356 -70 -52 -12
-102 -23 -111 -25 -119 -25 -489 -141 -685 -215 -397 -151 -826 -373 -1199
-620 -118 -78 -371 -265 -451 -332 -243 -204 -433 -383 -634 -598 -246 -262
-546 -666 -739 -995 -45 -77 -86 -147 -91 -155 -5 -8 -56 -107 -113 -220 -256
-509 -406 -948 -532 -1561 -2 -9 -6 -34 -9 -55 -4 -22 -11 -64 -16 -94 -14
-81 -18 -110 -25 -160 -3 -25 -8 -61 -10 -80 -3 -19 -7 -62 -10 -95 -3 -33 -8
-74 -10 -91 -27 -196 -27 -844 0 -1099 3 -22 7 -62 9 -90 3 -27 7 -66 10 -85
2 -19 8 -57 11 -85 11 -89 15 -116 29 -195 3 -19 8 -46 10 -60 44 -255 162
-703 241 -915 15 -38 30 -81 35 -95 97 -293 320 -746 548 -1111 147 -236 475
-679 504 -679 5 0 231 222 502 494 472 473 494 494 537 501 70 11 92 14 119
20 58 11 77 15 115 20 37 5 120 19 171 29 12 2 39 7 60 11 49 7 84 13 154 25
91 16 114 20 135 24 11 2 40 7 65 11 25 4 54 9 65 11 11 2 87 15 170 29 82 14
188 33 235 41 47 8 101 17 120 20 19 2 49 7 65 11 17 3 37 7 45 8 15 2 87 14
125 21 40 8 131 24 165 29 19 3 58 10 85 15 28 5 68 12 90 15 22 3 76 12 120
20 277 50 598 71 748 49 28 -4 59 -8 67 -9 36 -2 129 -30 176 -51 143 -67 210
-161 228 -319 4 -27 2 -56 -2 -62 -6 -10 -88 -13 -333 -15 l-324 -3 -3 -188
c-1 -104 2 -195 7 -205 9 -16 33 -18 318 -17 169 1 316 -2 326 -7 16 -8 17
-46 15 -631 -3 -582 -4 -622 -20 -625 -14 -3 -26 15 -53 73 -101 222 -292 396
-540 493 -267 104 -534 114 -960 37 -44 -8 -93 -17 -110 -19 -67 -11 -502 -86
-525 -91 -14 -3 -52 -10 -85 -15 -33 -5 -70 -12 -81 -14 -12 -2 -39 -7 -60
-10 -22 -4 -75 -13 -119 -21 -73 -13 -99 -17 -190 -31 -16 -3 -75 -14 -130
-24 -55 -10 -118 -21 -140 -24 -46 -8 -320 -54 -350 -60 -11 -2 -103 -18 -205
-35 -102 -18 -213 -38 -247 -44 l-62 -12 125 -110 c70 -60 131 -114 138 -120
196 -173 579 -435 907 -620 80 -46 413 -215 423 -215 2 0 37 -15 78 -34 182
-85 608 -239 778 -281 8 -2 65 -17 125 -33 118 -32 324 -78 390 -88 22 -3 56
-9 75 -14 19 -5 55 -11 80 -14 25 -4 56 -8 70 -11 91 -15 302 -39 475 -52 141
-10 708 -10 845 0 137 11 258 22 320 32 14 2 48 6 75 10 64 8 81 11 195 30
126 21 131 22 160 29 14 3 36 8 50 10 180 31 682 176 875 252 22 9 49 20 60
24 137 55 190 77 243 101 35 16 65 29 68 29 2 0 66 30 142 67 403 196 771 428
1127 712 66 53 125 100 131 106 27 24 162 144 188 167 l29 24 -69 12 c-38 7
-82 14 -99 17 -16 3 -41 7 -55 10 -23 5 -37 7 -115 20 -16 3 -111 19 -210 36
-99 17 -189 33 -200 34 -11 2 -36 6 -55 10 -37 7 -188 33 -230 40 -48 8 -265
45 -295 50 -77 14 -513 90 -575 100 -42 7 -98 16 -125 21 -25 5 -247 43 -294
50 -18 3 -43 8 -55 10 -193 37 -410 49 -576 31 -388 -44 -704 -256 -856 -574
-33 -71 -58 -91 -68 -55 -11 38 3 230 23 304 48 183 169 378 390 628 41 47
300 311 575 588 l501 503 35 -7 c19 -3 49 -8 65 -11 17 -2 53 -8 80 -13 28 -5
64 -12 80 -15 169 -29 214 -37 240 -41 17 -3 37 -7 45 -9 8 -2 35 -6 60 -9 25
-3 56 -8 70 -11 14 -3 48 -9 75 -14 28 -6 64 -12 80 -15 17 -2 57 -9 90 -14
33 -6 74 -13 90 -16 17 -2 71 -11 120 -20 50 -8 142 -24 205 -35 63 -10 126
-22 140 -26 14 -3 41 -7 60 -10 19 -2 60 -8 90 -14 30 -6 69 -13 85 -15 17 -3
61 -10 100 -17 l70 -12 498 -498 498 -499 68 83 c152 186 326 430 451 632 23
39 51 82 61 97 11 15 19 29 19 32 0 2 23 44 51 93 110 188 253 488 350 729
201 507 340 1082 394 1639 28 284 28 951 0 1135 -2 14 -6 52 -10 85 -4 51 -11
105 -29 235 -23 166 -74 416 -125 615 -60 232 -103 365 -217 676 -72 198 -272
611 -409 844 -138 236 -366 569 -494 721 -14 17 -44 53 -66 80 -188 231 -456
504 -721 734 -248 215 -641 492 -939 660 -325 183 -674 341 -1010 455 -60 20
-119 41 -130 45 -31 12 -226 66 -380 105 -135 34 -154 38 -220 51 -16 3 -61
11 -100 19 -60 12 -151 28 -230 40 -74 11 -283 35 -350 40 -44 4 -96 9 -115
11 -37 6 -716 14 -722 9z m1109 -1599 l-4 -381 -27 -85 c-69 -212 -203 -410
-476 -704 -36 -39 -490 -496 -1010 -1017 -1110 -1111 -1101 -1102 -1294 -1329
-40 -47 -162 -215 -208 -285 -144 -223 -211 -420 -224 -660 -7 -118 -17 -147
-40 -122 -12 12 -44 127 -50 180 -2 15 -6 39 -10 55 -3 15 -7 92 -9 172 -6
216 24 401 100 620 95 272 277 570 500 816 5 7 521 524 1146 1150 1272 1276
1307 1315 1423 1559 52 108 77 178 111 309 29 112 40 133 62 114 13 -10 14
-68 10 -392z m-2 -1082 c0 -208 -4 -395 -8 -414 -46 -213 -197 -457 -448 -725
-26 -27 -59 -63 -73 -80 -15 -16 -463 -466 -995 -1000 -532 -533 -994 -1001
-1027 -1040 -32 -38 -62 -72 -65 -75 -3 -3 -40 -50 -81 -105 -314 -418 -403
-754 -288 -1082 24 -68 25 -83 5 -83 -19 0 -85 84 -132 167 -225 403 -135 954
245 1493 43 62 135 183 157 206 5 6 28 33 49 60 22 27 509 519 1082 1094 573
575 1057 1061 1076 1081 166 177 280 345 354 521 30 70 77 216 88 274 15 76
28 98 51 90 6 -2 10 -138 10 -382z m4 -1103 c-2 -438 -4 -452 -105 -656 -79
-160 -221 -347 -434 -569 -47 -48 -438 -442 -870 -875 -432 -432 -816 -821
-852 -864 -146 -172 -274 -404 -304 -552 -44 -216 -23 -382 67 -530 18 -30 61
-84 96 -122 57 -61 62 -69 46 -80 -40 -30 -251 126 -354 262 -142 189 -217
455 -188 670 21 149 19 143 63 272 50 143 151 318 270 463 34 41 493 507 1021
1035 1067 1068 1096 1098 1204 1241 132 176 204 328 262 551 32 120 43 141 67
121 10 -9 12 -83 11 -367z m836 -438 c105 -61 243 -200 307 -308 49 -83 100
-214 119 -307 17 -84 19 -254 3 -349 -24 -144 -80 -295 -165 -440 -96 -165
-188 -268 -654 -735 -253 -254 -494 -497 -535 -540 -247 -261 -374 -481 -446
-778 -26 -109 -35 -126 -58 -107 -12 10 -14 70 -11 389 2 353 4 382 24 451 54
184 151 343 347 572 111 130 109 127 497 519 188 190 367 377 398 415 157 195
255 391 290 577 11 59 15 215 6 248 -2 8 -7 33 -12 55 -19 96 -87 214 -175
303 -49 50 -60 82 -28 82 8 0 49 -21 93 -47z m603 -792 c140 -210 200 -456
170 -696 -14 -117 -17 -132 -37 -212 -69 -270 -223 -553 -457 -843 -129 -159
-105 -134 -703 -735 -296 -297 -573 -583 -616 -635 -180 -218 -282 -423 -340
-684 -17 -74 -38 -102 -57 -74 -5 7 -7 184 -5 393 4 358 5 384 26 455 56 189
188 395 409 640 42 47 278 288 524 535 502 506 516 520 636 663 109 130 144
179 230 322 195 323 245 620 146 872 -18 47 -21 64 -12 75 14 18 35 -1 86 -76z
m233 -1038 c18 -46 47 -193 55 -271 36 -394 -69 -790 -314 -1182 -37 -58 -70
-109 -74 -115 -5 -5 -36 -46 -70 -90 -95 -124 -108 -138 -651 -682 l-510 -513
-289 0 -289 0 12 23 c29 56 133 193 240 317 64 74 339 358 610 631 585 588
638 643 754 783 22 26 46 54 53 62 40 42 181 240 227 319 138 235 184 387 200
660 2 33 4 66 4 73 2 23 31 12 42 -15z m1802 -2032 c8 -32 -8 -44 -64 -45
l-54 -1 0 -167 0 -168 -37 2 -36 1 -1 136 c0 75 0 150 0 168 l-1 31 -54 -1
c-52 -2 -55 -1 -58 25 -3 16 -3 30 0 32 2 2 70 5 152 5 136 0 148 -1 153 -18z
m196 -133 c29 -82 57 -148 61 -148 4 0 11 12 15 28 3 15 12 41 20 57 7 17 23
59 35 95 41 115 45 120 95 120 36 0 45 -4 46 -17 4 -52 4 -360 1 -370 -2 -7
-17 -13 -32 -13 -15 0 -30 6 -32 13 -2 6 -4 74 -3 150 0 75 -3 137 -7 137 -5
0 -8 -5 -8 -10 0 -6 -16 -55 -35 -108 -20 -53 -43 -116 -52 -140 -14 -39 -18
-43 -46 -40 -27 3 -33 9 -52 63 -12 33 -24 67 -28 75 -3 8 -15 44 -27 80 -12
36 -25 68 -29 73 -4 4 -7 -52 -6 -125 0 -73 -1 -141 -3 -150 -5 -21 -61 -25
-64 -5 -1 6 -2 97 -3 200 l-1 188 50 -3 50 -3 55 -147z m-3954 -1109 c3 -4
-14 -35 -38 -70 -25 -35 -64 -100 -87 -144 -44 -84 -120 -301 -140 -397 -11
-58 -33 -80 -49 -50 -11 21 -12 643 -1 657 9 11 304 14 315 4z"/>
</g>
</svg>
