<svg xmlns="http://www.w3.org/2000/svg" xmlns:xlink="http://www.w3.org/1999/xlink" width="0" height="0" style="position:absolute">
    <defs>

        <svg width="16" height="16" viewBox="0 0 16 16" id="bin"><path d="M2 5v10c0 .55.45 1 1 1h9c.55 0 1-.45 1-1V5H2zm3 9H4V7h1v7zm2 0H6V7h1v7zm2 0H8V7h1v7zm2 0h-1V7h1v7zM13.25 2H10V.75A.753.753 0 0 0 9.25 0h-3.5A.753.753 0 0 0 5 .75V2H1.75a.752.752 0 0 0-.75.75V4h13V2.75a.752.752 0 0 0-.75-.75zM9 2H6v-.987h3V2z"></path></svg>

        <svg width="16" height="16" viewBox="0 0 16 16" id="bullet"><path d="M8 0a8 8 0 1 0 0 16A8 8 0 0 0 8 0zm0 14A6 6 0 1 1 8 2a6 6 0 0 1 0 12zM5 8a3 3 0 1 1 6 0 3 3 0 0 1-6 0z"></path></svg>

        <svg width="16" height="16" viewBox="0 0 16 16" id="cancel-circle"><path d="M8 0a8 8 0 1 0 0 16A8 8 0 0 0 8 0zm0 14.5a6.5 6.5 0 1 1 0-13 6.5 6.5 0 0 1 0 13z"></path><path d="M10.5 4L8 6.5 5.5 4 4 5.5 6.5 8 4 10.5 5.5 12 8 9.5l2.5 2.5 1.5-1.5L9.5 8 12 5.5z"></path></svg>

        <svg width="16" height="16" viewBox="0 0 16 16" id="checkmark"><path d="M13.5 2L6 9.5 2.5 6 0 8.5l6 6 10-10z"></path></svg>

        <svg width="16" height="16" viewBox="0 0 16 16" id="checkmark2"><path d="M6.21 14.339L-.007 8.22l3.084-3.035L6.21 8.268l6.713-6.607 3.084 3.035-9.797 9.643zM1.686 8.22l4.524 4.453 8.104-7.976-1.391-1.369L6.21 9.935 3.077 6.852 1.686 8.221z"></path></svg>

        <svg width="16" height="16" viewBox="0 0 10 16" id="chevron-down"><title>chevron-down</title><path d="M8 5L5 8 2 5 0 7l5 5 5-5-2-2z"></path></svg>

        <svg width="16" height="16" viewBox="0 0 7 16" id="chevron-left"><title>chevron-left</title><path d="M7 5L5 3 0 8l5 5 2-2-3-3 3-3z"></path></svg>

        <svg width="16" height="16" viewBox="0 0 7 16" id="chevron-right"><title>chevron-right</title><path d="M2 3L0 5l3 3-3 3 2 2 5-5-5-5z"></path></svg>

        <svg width="16" height="16" viewBox="0 0 10 16" id="chevron-up"><title>chevron-up</title><path d="M5 4L0 9l2 2 3-3 3 3 2-2-5-5z"></path></svg>

        <svg width="16" height="16" viewBox="0 0 16 16" id="circle-down"><title>circle-down</title><path fill="#444" d="M16 8A8 8 0 1 0 0 8a8 8 0 0 0 16 0zM1.5 8a6.5 6.5 0 1 1 13 0 6.5 6.5 0 0 1-13 0z"></path><path fill="#444" d="M4.957 5.543L3.543 6.957 8 11.414l4.457-4.457-1.414-1.414L8 8.586z"></path></svg>

        <svg width="16" height="16" viewBox="0 0 16 16" id="circle-left"><title>circle-left</title><path fill="#444" d="M8 16A8 8 0 1 0 8 0a8 8 0 0 0 0 16zM8 1.5a6.5 6.5 0 1 1 0 13 6.5 6.5 0 0 1 0-13z"></path><path fill="#444" d="M10.457 4.957L9.043 3.543 4.586 8l4.457 4.457 1.414-1.414L7.414 8z"></path></svg>

        <svg width="16" height="16" viewBox="0 0 16 16" id="circle-right"><title>circle-right</title><path fill="#444" d="M8 0a8 8 0 1 0 0 16A8 8 0 0 0 8 0zm0 14.5a6.5 6.5 0 1 1 0-13 6.5 6.5 0 0 1 0 13z"></path><path fill="#444" d="M5.543 11.043l1.414 1.414L11.414 8 6.957 3.543 5.543 4.957 8.586 8z"></path></svg>

        <svg width="16" height="16" viewBox="0 0 16 16" id="circle-up"><title>circle-up</title><path fill="#444" d="M0 8a8 8 0 1 0 16 0A8 8 0 0 0 0 8zm14.5 0a6.5 6.5 0 1 1-13 0 6.5 6.5 0 0 1 13 0z"></path><path fill="#444" d="M11.043 10.457l1.414-1.414L8 4.586 3.543 9.043l1.414 1.414L8 7.414z"></path></svg>

        <svg width="16" height="16" viewBox="0 0 16 16" id="cross"><path d="M15.854 12.854L11 8l4.854-4.854a.503.503 0 0 0 0-.707L13.561.146a.499.499 0 0 0-.707 0L8 5 3.146.146a.5.5 0 0 0-.707 0L.146 2.439a.499.499 0 0 0 0 .707L5 8 .146 12.854a.5.5 0 0 0 0 .707l2.293 2.293a.499.499 0 0 0 .707 0L8 11l4.854 4.854a.5.5 0 0 0 .707 0l2.293-2.293a.499.499 0 0 0 0-.707z"></path></svg>

        <svg width="16" height="16" viewBox="0 0 16 16" id="facebook"><path d="M10.5 3A2.5 2.5 0 0 0 8 5.5V7H6v2h2v7h2V9h2.25l.5-2H10V5.5a.5.5 0 0 1 .5-.5H13V3h-2.5z"></path></svg>

        <svg width="16" height="16" viewBox="0 0 16 16" id="gear"><title>gear</title><path d="M8.034 5.085a2.88 2.88 0 0 0 0 5.76c1.59 0 2.87-1.292 2.87-2.88 0-1.591-1.28-2.88-2.87-2.88zm5.772 4.534l-.518 1.25 1.047 2.058-1.283 1.284-2.106-.995-1.25.514-.635 1.942-.081.258H7.166l-.785-2.192-1.25-.516-2.06 1.043-1.283-1.282.993-2.107-.515-1.25L.07 8.91V7.097l2.194-.786.515-1.248-.923-1.821-.121-.24 1.28-1.28 2.109.993 1.248-.517.634-1.94L7.088 0H8.9l.785 2.195 1.247.516 2.063-1.045 1.283 1.28-.994 2.106.513 1.25 2.2.716V8.83l-2.193.789h.001z" mask="url(#mask-2)"></path></svg>

        <svg height="16" width="16" viewBox="0 0 32 32" id="google"><title>google-plus</title><path d="M10.181 14.294v3.494h5.775c-.231 1.5-1.744 4.394-5.775 4.394-3.475 0-6.313-2.881-6.313-6.431S6.706 9.32 10.181 9.32c1.981 0 3.3.844 4.056 1.569l2.762-2.662c-1.775-1.656-4.075-2.662-6.819-2.662C4.549 5.571-.001 10.121-.001 15.753s4.55 10.181 10.181 10.181c5.875 0 9.775-4.131 9.775-9.95a9.27 9.27 0 0 0-.163-1.688h-9.613zM32 14h-3v-3h-3v3h-3v3h3v3h3v-3h3z"></path></svg>

        <svg width="16" height="16" viewBox="0 0 16 16" id="link"><path d="M6.879 9.934a.81.81 0 0 1-.575-.238 3.818 3.818 0 0 1 0-5.392l3-3C10.024.584 10.982.187 12 .187s1.976.397 2.696 1.117a3.818 3.818 0 0 1 0 5.392l-1.371 1.371a.813.813 0 0 1-1.149-1.149l1.371-1.371A2.19 2.19 0 0 0 12 1.812c-.584 0-1.134.228-1.547.641l-3 3a2.19 2.19 0 0 0 0 3.094.813.813 0 0 1-.575 1.387z"></path><path d="M4 15.813a3.789 3.789 0 0 1-2.696-1.117 3.818 3.818 0 0 1 0-5.392l1.371-1.371a.813.813 0 0 1 1.149 1.149l-1.371 1.371A2.19 2.19 0 0 0 4 14.188c.585 0 1.134-.228 1.547-.641l3-3a2.19 2.19 0 0 0 0-3.094.813.813 0 0 1 1.149-1.149 3.818 3.818 0 0 1 0 5.392l-3 3A3.789 3.789 0 0 1 4 15.813z"></path></svg>

        <svg width="16" height="16" viewBox="0 0 16 16" id="linkedin2"><path d="M6 6h2.767v1.418h.04C9.192 6.727 10.134 6 11.539 6 14.46 6 15 7.818 15 10.183V15h-2.885v-4.27c0-1.018-.021-2.329-1.5-2.329-1.502 0-1.732 1.109-1.732 2.255V15H6V6zM1 6h3v9H1V6zM4 3.5a1.5 1.5 0 1 1-3.001-.001A1.5 1.5 0 0 1 4 3.5z"></path></svg>

        <svg id="list-countdown" width="16" height="16" viewBox="-6 8 16 16"><style>.st0{fill:#444}</style><path class="st0" d="M0 21h10v2H0v-2zm0-6h10v2H0v-2zm0-6h10v2H0V9zm-3 11v4h-1v-3h-1v-1h2zm-1-2.8v.8h2v1h-3v-2.3l2-.9V15h-2v-1h3v2.3l-2 .9zM-2 8v5h-3v-1h2v-1h-2v-1h2V9h-2V8h3z"></path></svg>

        <svg width="16" height="16" viewBox="0 0 16 16" id="list-numbered"><path d="M6 13h10v2H6zm0-6h10v2H6zm0-6h10v2H6zM3 0v4H2V1H1V0zM2 8.219V9h2v1H1V7.719l2-.938V6H1V5h3v2.281zM4 11v5H1v-1h2v-1H1v-1h2v-1H1v-1z"></path></svg>

        <svg width="16" height="16" viewBox="0 0 16 16" id="list2"><path d="M6 1h10v2H6V1zm0 6h10v2H6V7zm0 6h10v2H6v-2zM0 2a2 2 0 1 1 3.999-.001A2 2 0 0 1 0 2zm0 6a2 2 0 1 1 3.999-.001A2 2 0 0 1 0 8zm0 6a2 2 0 1 1 3.999-.001A2 2 0 0 1 0 14z"></path></svg>

        <svg width="16" height="16" viewBox="0 0 16 16" id="minus"><path d="M0 6.5v3a.5.5 0 0 0 .5.5h15a.5.5 0 0 0 .5-.5v-3a.5.5 0 0 0-.5-.5H.5a.5.5 0 0 0-.5.5z"></path></svg>

        <svg width="16" height="16" viewBox="0 0 16 16" id="plus"><path d="M15.5 6H10V.5a.5.5 0 0 0-.5-.5h-3a.5.5 0 0 0-.5.5V6H.5a.5.5 0 0 0-.5.5v3a.5.5 0 0 0 .5.5H6v5.5a.5.5 0 0 0 .5.5h3a.5.5 0 0 0 .5-.5V10h5.5a.5.5 0 0 0 .5-.5v-3a.5.5 0 0 0-.5-.5z"></path></svg>

        <svg width="16" height="16" viewBox="0 0 16 16" id="radio-checked"><path d="M8 0a8 8 0 1 0 0 16A8 8 0 0 0 8 0zm0 14A6 6 0 1 1 8 2a6 6 0 0 1 0 12zM5 8a3 3 0 1 1 6 0 3 3 0 0 1-6 0z"></path></svg>

        <svg width="16" height="16" viewBox="0 0 16 16" id="radio-checked2"><path d="M8 0a8 8 0 1 0 0 16A8 8 0 0 0 8 0zm0 10a2 2 0 1 1-.001-3.999A2 2 0 0 1 8 10z"></path></svg>

        <svg width="16" height="16" viewBox="0 0 16 16" id="radio-unchecked"><path d="M8 0a8 8 0 1 0 0 16A8 8 0 0 0 8 0zm0 14A6 6 0 1 1 8 2a6 6 0 0 1 0 12z"></path></svg>

        <svg width="15" height="16" viewBox="0 0 15 16" id="search"><path d="M15 13l-3.893-3.893A5.921 5.921 0 0 0 12 6c0-3.313-2.688-6-6-6S0 2.687 0 6a6 6 0 0 0 6 6c1.143 0 2.2-.337 3.107-.891L13 15a.715.715 0 0 0 1 0l1-1a.713.713 0 0 0 0-1zm-9-3a4 4 0 1 1 0-8 4 4 0 0 1 0 8z"></path></svg>

        <svg width="12" height="16" viewBox="0 0 12 16" id="triangle-down"><title>triangle-down</title><path fill="#444" d="M0 6l5.996 5.996L11.992 6H0z"></path></svg>

        <svg width="6" height="16" viewBox="0 0 6 16" id="triangle-left"><title>triangle-left</title><path fill="#444" d="M0 7.998l5.996 5.996V2.002L0 7.998z"></path></svg>

        <svg width="6" height="16" viewBox="0 0 6 16" id="triangle-right"><title>triangle-right</title><path fill="#444" d="M.001 2.004L5.997 8 .001 13.996V2.004z"></path></svg>

        <svg width="12" height="16" viewBox="0 0 12 16" id="triangle-up"><title>triangle-up</title><path fill="#444" d="M5.996 4L0 9.996h11.992L5.996 4z"></path></svg>

        <svg width="16" height="16" viewBox="0 0 16 16" id="twitter"><path d="M16 3.038a6.555 6.555 0 0 1-1.885.517 3.291 3.291 0 0 0 1.443-1.816 6.594 6.594 0 0 1-2.085.797 3.283 3.283 0 0 0-5.594 2.993 9.32 9.32 0 0 1-6.766-3.43 3.263 3.263 0 0 0-.444 1.65c0 1.139.579 2.144 1.46 2.732A3.27 3.27 0 0 1 .642 6.07v.041A3.286 3.286 0 0 0 3.275 9.33a3.283 3.283 0 0 1-1.483.056 3.287 3.287 0 0 0 3.066 2.28 6.588 6.588 0 0 1-4.86 1.359A9.295 9.295 0 0 0 5.03 14.5c6.038 0 9.34-5.002 9.34-9.34a8.58 8.58 0 0 0-.01-.425 6.665 6.665 0 0 0 1.638-1.699z"></path></svg>

        <svg xmlns="http://www.w3.org/2000/svg" viewBox="0 0 169.88 169.88" id="adventist-icon--round"><title>icon-logo-round-sda</title><path d="M147.5,117c.67,0,1.07-.37,1.07-.91s-.34-.86-1.08-.86h-.63V117Zm-1.62-2.6h1.65c1.4,0,2,.56,2,1.66a1.49,1.49,0,0,1-1,1.46L150,120h-1.1l-1.28-2.23h-.8V120h-1Zm5.74,2.8a3.93,3.93,0,0,0-4-4,3.87,3.87,0,0,0-4,4,4,4,0,1,0,8,0Zm-8.69,0a4.55,4.55,0,0,1,4.71-4.71,4.62,4.62,0,0,1,4.71,4.71,4.71,4.71,0,1,1-9.42,0Zm-55.08-.31c0-5.71,5.08-10.92,11.13-17l6.71-6.71c4.45-4.45,13.79-13.8,9.89-22.62-.25-.58.17-.87.56-.39,5.9,7.21,3.89,18.43-7.7,30L99,109.64c-6,6-8.89,8.89-10.38,16.15-.11.55-.73.54-.73,0Zm-21.8-23c-6.81,6.82-8.46,14.72-3,19.42.45.39.22.87-.37.6-6.77-3.08-12.1-14.27-.5-25.87l23.2-23.18c6-6,8.88-8.84,10.38-16.1.11-.54.73-.54.73,0v8.9c0,5.7-5.08,10.92-11.13,17Zm-12.27,9.19c-5.9-7.21-3.89-18.43,7.7-30L85.36,49.18c6-6,8.89-8.9,10.38-16.16.12-.54.74-.54.74,0v9c0,5.7-5.09,10.92-11.14,17L64.24,80.06c-4.45,4.44-13.8,13.8-9.9,22.61C54.6,103.25,54.17,103.54,53.78,103.06Zm-4-15.71C47.61,80.47,49,69.92,59,60L85.33,33.57c6-6,8.9-8.85,10.39-16.11.11-.54.73-.54.73,0v8.9c0,5.7-5.08,10.92-11.13,17L62.58,66.06C52,76.61,50.37,81.58,50.42,87.36c0,.61-.5.57-.68,0Zm54.13-8c6.82-6.82,8.46-14.72,3-19.41-.45-.4-.21-.88.38-.61,6.76,3.08,12.09,14.28.5,25.87L99,94c-6,6-8.88,8.84-10.38,16.1-.11.55-.73.54-.73,0v-8.89c0-5.71,5.08-10.92,11.13-17Zm16.32,6.53c2.12,6.88.73,17.42-9.23,27.39l-12,12-1,1H89.77c2-3.47,5.43-6.93,9.23-10.73l8.34-8.34c10.55-10.55,12.21-15.51,12.16-21.29C119.5,85.25,120,85.28,120.19,85.87ZM88.6,141.35c-.11.55-.73.55-.73,0v-8.88a.36.36,0,0,1,.36-.36h4.4a21.27,21.27,0,0,0-4,9.25Zm19.54-.24c-11.45-1.93-17.7,3.52-19.57,8.62-.16.45-.7.38-.7,0V148.1c0-5.71,5.08-10.92,11.13-17l10-10,26.64,4.58,14.12,14.12a84.94,84.94,0,1,0-129.64,0L34.24,125.7l30.24-5.2c14-2.43,17.5.72,17.52,5.35a.37.37,0,0,1-.36.37H72.91a.37.37,0,0,0-.37.36v5.16a.37.37,0,0,0,.37.36h8.74a.37.37,0,0,1,.36.37v17.21c0,.43-.54.5-.7,0-1.87-5.1-8.11-10.55-19.57-8.62l-34.68,6a84.89,84.89,0,0,0,115.76,0l-34.68-6Z" fill="#fff"></path></svg>

        <svg xmlns="http://www.w3.org/2000/svg" viewBox="0 0 253.71 227.63" id="adventist-icon"><title>icon-logo</title><path d="M67.68,120.38c-.1-9.91,2.8-18.41,20.8-36.41l39-39c10.4-10.4,19.1-19.29,19.1-29V.67c0-.89-1.1-.89-1.2,0-2.6,12.4-7.5,17.3-17.8,27.61L82.28,73.47c-17.1,17-19.5,35.1-15.8,46.91C66.78,121.38,67.68,121.47,67.68,120.38Zm64.2,38.9c0,.89,1,.89,1.2,0,2.6-12.5,7.6-17.4,17.8-27.61L166,116.78c19.8-19.9,10.7-39-.9-44.31-1-.5-1.4.31-.6,1,9.3,8,6.5,21.5-5.2,33.2L151,115c-10.4,10.31-19.1,19.2-19.1,29Zm81.8,26.6L168,178.17l-17.1,17.11c-10.4,10.39-19,19.3-19,29V227c0,.7.9.9,1.2.11,3.2-8.7,13.9-18.11,33.5-14.8,0,0,85.4,14.8,86.1,14.8a.9.9,0,0,0,1-.61.79.79,0,0,0-.2-.8c-.3-.39-39.8-39.8-39.8-39.8Zm-107.5,1h15a.66.66,0,0,0,.6-.6c0-7.9-6-13.31-30-9.2L40,186S.58,225.37.28,225.78a.79.79,0,0,0-.1,1.1.81.81,0,0,0,.8.2c.7-.11,86.1-14.8,86.1-14.8,19.6-3.31,30.3,6,33.5,14.8.3.8,1.2.7,1.2-.11v-29.5a.66.66,0,0,0-.6-.6l-15,.1a.64.64,0,0,1-.6-.6v-8.9a.65.65,0,0,1,.6-.6Zm26.8,25.9a36.3,36.3,0,0,1,6.9-15.81h-7.5a.65.65,0,0,0-.6.61v15.2c0,.89,1.1.89,1.2,0Zm13.6-158.6c0-.91-1.1-.91-1.2,0-2.6,12.39-7.5,17.29-17.8,27.6l-39.8,39.69c-19.8,19.81-10.7,39,.9,44.31,1,.5,1.4-.4.6-1-9.3-8-6.5-21.61,5.2-33.2l33-33c10.4-10.4,19.1-19.3,19.1-29Zm-19.1,17.49c10.4-10.3,19-19.2,19.1-29V27.27c0-.9-1.1-.9-1.2,0-2.6,12.4-7.5,17.4-17.8,27.7L86.68,95.78c-19.8,19.8-23.3,39-13.2,51.4.7.8,1.4.3,1-.7-6.7-15.1,9.3-31.1,16.9-38.7Zm37.6,82.5-14.3,14.2c-6.5,6.5-12.3,12.4-15.8,18.4h14.1l1.7-1.7,20.5-20.5c17.1-16.9,19.5-35,15.8-46.8-.3-1-1.2-1.1-1.2,0,.1,9.9-2.8,18.4-20.8,36.4Zm-2.8-24-11.4,11.5c-10.4,10.4-19.1,19.4-19.1,29.11v15.3c0,.89,1.1.89,1.2,0,2.6-12.4,7.5-17.4,17.8-27.7L167,142.17c19.8-19.8,23.3-39,13.2-51.4-.7-.8-1.4-.3-1,.7C185.88,106.57,169.88,122.57,162.28,130.17Zm83.5,68.2h1.1l1.7,3h1.5l-2-3.3a2,2,0,0,0,1.3-2c0-1.5-.8-2.2-2.7-2.2h-2.2v7.5h1.3v-3Zm0-3.5h.8c1,0,1.4.3,1.4,1.2,0,.7-.5,1.2-1.4,1.2h-.9v-2.4Zm1,9a6.3,6.3,0,1,0-6.3-6.3,6.08,6.08,0,0,0,5.87,6.3Zm0-11.7a5.4,5.4,0,1,1,0,10.8,5.31,5.31,0,0,1-5.4-5.23h0v-.16a5.24,5.24,0,0,1,5.11-5.39h.29Z" fill="#fff"></path></svg>

  </defs>
</svg>
