<?xml version="1.0" encoding="UTF-8"?>
<svg viewBox="0 0 459 136" version="1.1" xmlns="http://www.w3.org/2000/svg" xmlns:xlink="http://www.w3.org/1999/xlink">
    <!-- Generator: Sketch 50 (54983) - http://www.bohemiancoding.com/sketch -->
    <title>IGS - Horizontal</title>
    <desc>Created with Sketch.</desc>
    <defs></defs>
    <g id="IGS---Horizontal" stroke="none" stroke-width="1" fill="none" fill-rule="evenodd">
        <path d="M25.1136,54 L10.6785,54 L12.357,49.524 L15.3783,49.524 L15.3783,18.47175 L10.6785,18.47175 L10.6785,14.0517 L25.1136,14.0517 L23.4351,18.47175 L20.4138,18.47175 L20.4138,49.524 L25.1136,49.524 L25.1136,54 Z M42.2343,54.5595 C34.79295,54.5595 29.9253,49.35615 29.9253,39.06135 C29.9253,28.76655 34.8489,23.4513 42.29025,23.4513 C46.9341,23.4513 49.7316,25.40955 51.57795,27.87135 L51.91365,27.87135 C51.80175,26.9202 51.57795,24.5703 51.57795,23.4513 L51.57795,13.3803 L56.50155,11.478 L56.50155,54 L52.5291,54 L51.80175,49.9716 L51.57795,49.9716 C49.78755,52.5453 46.9341,54.5595 42.2343,54.5595 Z M43.0176,50.47515 C49.33995,50.47515 51.6339,47.00625 51.6339,40.0125 L51.6339,39.1173 C51.6339,31.67595 49.6197,27.53565 42.96165,27.53565 C37.6464,27.53565 35.01675,32.0676 35.01675,39.17325 C35.01675,46.33485 37.6464,50.47515 43.0176,50.47515 Z M77.0352,23.4513 C84.70035,23.4513 89.40015,28.8225 89.40015,36.9912 L89.40015,39.95655 L68.8665,39.95655 C69.03435,46.7265 72.4473,50.36325 78.43395,50.36325 C81.34335,50.36325 84.3087,49.80375 86.6586,48.90855 L88.05735,52.60125 C84.9801,53.94405 82.2945,54.5595 78.21015,54.5595 C69.6498,54.5595 63.77505,49.24425 63.77505,39.2292 C63.77505,29.382 69.0903,23.4513 77.0352,23.4513 Z M76.97925,27.4797 C72.27945,27.4797 69.48195,30.66885 68.9784,36.04005 L84.25275,36.04005 C84.1968,30.9486 81.9588,27.4797 76.97925,27.4797 Z M110.32545,23.4513 C117.48705,23.4513 121.17975,26.75235 121.17975,34.47345 L121.17975,54 L116.3121,54 L116.3121,34.80915 C116.3121,29.99745 114.186,27.5916 109.5981,27.5916 C102.94005,27.5916 100.81395,31.45215 100.81395,38.4459 L100.81395,54 L95.89035,54 L95.89035,24.0108 L99.8628,24.0108 L100.59015,28.09515 L100.8699,28.09515 C102.82815,24.96195 106.52085,23.4513 110.32545,23.4513 Z M137.9088,50.5311 C139.0278,50.5311 140.53845,50.13945 141.20985,49.80375 L142.55265,53.3286 C141.4896,54 139.3635,54.5595 137.06955,54.5595 C132.36975,54.5595 128.2854,52.5453 128.2854,45.2718 L128.2854,18.9753 L133.209,17.12895 L133.209,24.0108 L141.88125,24.0108 L141.88125,27.8154 L133.209,27.8154 L133.209,45.1599 C133.209,48.79665 135.16725,50.5311 137.9088,50.5311 Z M149.49045,12.76485 C151.0011,12.76485 152.3439,13.716 152.3439,15.89805 C152.3439,18.02415 151.0011,19.03125 149.49045,19.03125 C147.8679,19.03125 146.58105,18.02415 146.58105,15.89805 C146.58105,13.716 147.8679,12.76485 149.49045,12.76485 Z M173.493,24.0108 L178.47255,24.0108 L184.96275,41.07555 C186.08175,44.09685 187.0329,46.78245 187.4805,49.24425 L187.7043,49.24425 C188.1519,47.3979 189.21495,44.09685 190.278,41.0196 L196.37655,24.0108 L201.6918,24.0108 L188.76735,58.1403 C186.64125,63.79125 184.73895,65.8614 180.7665,67.428 L179.25585,63.45555 C181.5498,62.3925 182.50095,61.32945 183.73185,58.08435 L185.29845,54.1119 L174.740747,27.8154 L164.14935,27.8154 L164.14935,45.1599 C164.14935,48.79665 166.1076,50.5311 168.84915,50.5311 C169.96815,50.5311 171.4788,50.13945 172.1502,49.80375 L173.493,53.3286 C172.42995,54 170.30385,54.5595 168.0099,54.5595 C163.3101,54.5595 159.22575,52.5453 159.22575,45.2718 L159.22575,18.9753 L164.14935,17.12895 L164.14935,24.0108 L173.493,24.0108 Z M151.8963,24.0108 L151.8963,54 L146.9727,54 L146.9727,24.0108 L151.8963,24.0108 Z" id="Identity-" fill="#FFFFFF"></path>
        <path d="M32.89065,92.90685 L45.0318,92.90685 L45.0318,112.48935 C40.72365,113.8881 36.58335,114.5595 30.98835,114.5595 C18.56745,114.5595 11.85345,106.67055 11.85345,94.02585 C11.85345,81.549 19.46265,73.4922 32.55495,73.4922 C37.03095,73.4922 41.05935,74.3874 44.4723,75.8421 L42.7938,80.26215 C39.94035,79.03125 36.0798,77.91225 32.2752,77.91225 C22.70775,77.91225 17.11275,84.06675 17.11275,94.02585 C17.11275,103.5933 21.4209,110.1954 32.1633,110.1954 C35.68815,110.1954 37.9821,109.7478 39.9963,109.24425 L39.9963,97.38285 L31.21215,97.38285 L32.89065,92.90685 Z M77.87445,84.0108 L77.87445,114 L73.84605,114 L73.1187,110.02755 L72.8949,110.02755 C70.93665,113.16075 67.24395,114.5595 63.3834,114.5595 C56.16585,114.5595 52.47315,111.25845 52.47315,103.64925 L52.47315,84.0108 L57.4527,84.0108 L57.4527,103.31355 C57.4527,108.12525 59.5788,110.47515 64.11075,110.47515 C70.7688,110.47515 72.95085,106.6146 72.95085,99.62085 L72.95085,84.0108 L77.87445,84.0108 Z M88.7847,72.76485 C90.29535,72.76485 91.63815,73.716 91.63815,75.89805 C91.63815,78.02415 90.29535,79.03125 88.7847,79.03125 C87.16215,79.03125 85.8753,78.02415 85.8753,75.89805 C85.8753,73.716 87.16215,72.76485 88.7847,72.76485 Z M91.19055,84.0108 L91.19055,114 L86.26695,114 L86.26695,84.0108 L91.19055,84.0108 Z M110.77305,114.5595 C103.3317,114.5595 98.46405,109.35615 98.46405,99.06135 C98.46405,88.76655 103.38765,83.4513 110.829,83.4513 C115.47285,83.4513 118.27035,85.40955 120.1167,87.87135 L120.4524,87.87135 C120.3405,86.9202 120.1167,84.5703 120.1167,83.4513 L120.1167,73.3803 L125.0403,71.478 L125.0403,114 L121.06785,114 L120.3405,109.9716 L120.1167,109.9716 C118.3263,112.5453 115.47285,114.5595 110.77305,114.5595 Z M111.55635,110.47515 C117.8787,110.47515 120.17265,107.00625 120.17265,100.0125 L120.17265,99.1173 C120.17265,91.67595 118.15845,87.53565 111.5004,87.53565 C106.18515,87.53565 103.5555,92.0676 103.5555,99.17325 C103.5555,106.33485 106.18515,110.47515 111.55635,110.47515 Z M145.57395,83.4513 C153.2391,83.4513 157.9389,88.8225 157.9389,96.9912 L157.9389,99.95655 L137.40525,99.95655 C137.5731,106.7265 140.98605,110.36325 146.9727,110.36325 C149.8821,110.36325 152.84745,109.80375 155.19735,108.90855 L156.5961,112.60125 C153.51885,113.94405 150.83325,114.5595 146.7489,114.5595 C138.18855,114.5595 132.3138,109.24425 132.3138,99.2292 C132.3138,89.382 137.62905,83.4513 145.57395,83.4513 Z M145.518,87.4797 C140.8182,87.4797 138.0207,90.66885 137.51715,96.04005 L152.7915,96.04005 C152.73555,90.9486 150.49755,87.4797 145.518,87.4797 Z M169.3527,114 L164.4291,114 L164.4291,73.3803 L169.3527,71.478 L169.3527,114 Z M180.26295,72.76485 C181.7736,72.76485 183.1164,73.716 183.1164,75.89805 C183.1164,78.02415 181.7736,79.03125 180.26295,79.03125 C178.6404,79.03125 177.35355,78.02415 177.35355,75.89805 C177.35355,73.716 178.6404,72.76485 180.26295,72.76485 Z M182.6688,84.0108 L182.6688,114 L177.7452,114 L177.7452,84.0108 L182.6688,84.0108 Z M205.4964,83.4513 C212.658,83.4513 216.3507,86.75235 216.3507,94.47345 L216.3507,114 L211.48305,114 L211.48305,94.80915 C211.48305,89.99745 209.35695,87.5916 204.76905,87.5916 C198.111,87.5916 195.9849,91.45215 195.9849,98.4459 L195.9849,114 L191.0613,114 L191.0613,84.0108 L195.03375,84.0108 L195.7611,88.09515 L196.04085,88.09515 C197.9991,84.96195 201.6918,83.4513 205.4964,83.4513 Z M236.10105,83.4513 C243.7662,83.4513 248.466,88.8225 248.466,96.9912 L248.466,99.95655 L227.93235,99.95655 C228.1002,106.7265 231.51315,110.36325 237.4998,110.36325 C240.4092,110.36325 243.37455,109.80375 245.72445,108.90855 L247.1232,112.60125 C244.04595,113.94405 241.36035,114.5595 237.276,114.5595 C228.71565,114.5595 222.8409,109.24425 222.8409,99.2292 C222.8409,89.382 228.15615,83.4513 236.10105,83.4513 Z M236.0451,87.4797 C231.3453,87.4797 228.5478,90.66885 228.04425,96.04005 L243.3186,96.04005 C243.26265,90.9486 241.02465,87.4797 236.0451,87.4797 Z M292.27485,103.31355 C292.27485,110.4192 286.7358,114.5595 278.0076,114.5595 C273.5316,114.5595 269.55915,113.8881 267.0414,112.6572 L268.608,108.5169 C270.34245,109.3002 273.9792,110.1954 278.2314,110.1954 C284.1621,110.1954 287.23935,107.7336 287.23935,103.76115 C287.23935,99.84465 285.0573,98.16615 277.83975,95.5365 C271.01385,93.0747 267.54495,89.88555 267.54495,83.6751 C267.54495,77.35275 272.7483,73.4922 280.30155,73.4922 C284.66565,73.4922 288.3024,74.3874 291.3237,75.7302 L289.70115,80.03835 C286.90365,78.8634 283.65855,77.91225 280.18965,77.91225 C275.2101,77.91225 272.6364,80.26215 272.6364,83.73105 C272.6364,87.75945 274.8744,89.382 281.3646,91.78785 C288.4143,94.4175 292.27485,97.04715 292.27485,103.31355 Z M294.40095,84.0108 L299.66025,84.0108 L306.15045,101.07555 C307.26945,104.09685 308.2206,106.78245 308.6682,109.24425 L308.892,109.24425 C309.3396,107.3979 310.40265,104.09685 311.4657,101.0196 L317.56425,84.0108 L322.8795,84.0108 L309.95505,118.1403 C307.82895,123.79125 305.92665,125.8614 301.9542,127.428 L300.44355,123.45555 C302.7375,122.3925 303.68865,121.32945 304.91955,118.08435 L306.48615,114.1119 L294.40095,84.0108 Z M346.0428,105.7194 C346.0428,111.5382 341.39895,114.5595 334.0695,114.5595 C329.87325,114.5595 326.96385,113.8881 324.6699,112.6572 L326.1246,108.8526 C328.08285,109.69185 331.32795,110.58705 334.1814,110.58705 C339.16095,110.58705 341.28705,108.8526 341.28705,106.167 C341.28705,103.929 339.7764,102.5862 333.90165,100.3482 C328.08285,98.1102 324.61395,96.3198 324.61395,91.3962 C324.61395,86.30475 329.1459,83.4513 335.8599,83.4513 C339.49665,83.4513 342.62985,84.2346 345.42735,85.4655 L343.9167,89.43795 C341.343,88.31895 338.4336,87.4797 335.5242,87.4797 C331.4958,87.4797 329.31375,88.87845 329.31375,91.11645 C329.31375,93.6342 331.272,94.6413 337.03485,96.82335 C342.74175,98.94945 346.0428,100.9077 346.0428,105.7194 Z M360.5898,110.5311 C361.7088,110.5311 363.21945,110.13945 363.89085,109.80375 L365.23365,113.3286 C364.1706,114 362.0445,114.5595 359.75055,114.5595 C355.05075,114.5595 350.9664,112.5453 350.9664,105.2718 L350.9664,78.9753 L355.89,77.12895 L355.89,84.0108 L364.56225,84.0108 L364.56225,87.8154 L355.89,87.8154 L355.89,105.1599 C355.89,108.79665 357.84825,110.5311 360.5898,110.5311 Z M381.23535,83.4513 C388.9005,83.4513 393.6003,88.8225 393.6003,96.9912 L393.6003,99.95655 L373.06665,99.95655 C373.2345,106.7265 376.64745,110.36325 382.6341,110.36325 C385.5435,110.36325 388.50885,109.80375 390.85875,108.90855 L392.2575,112.60125 C389.18025,113.94405 386.49465,114.5595 382.4103,114.5595 C373.84995,114.5595 367.9752,109.24425 367.9752,99.2292 C367.9752,89.382 373.29045,83.4513 381.23535,83.4513 Z M381.1794,87.4797 C376.4796,87.4797 373.6821,90.66885 373.17855,96.04005 L388.4529,96.04005 C388.39695,90.9486 386.15895,87.4797 381.1794,87.4797 Z M432.9891,83.4513 C439.75905,83.4513 443.11605,86.75235 443.11605,94.47345 L443.11605,114 L438.2484,114 L438.2484,94.69725 C438.2484,89.99745 436.29015,87.5916 432.14985,87.5916 C426.33105,87.5916 424.0371,91.0605 424.0371,97.4388 L424.0371,114 L419.16945,114 L419.16945,94.69725 C419.16945,89.99745 417.2112,87.5916 413.01495,87.5916 C406.97235,87.5916 405.0141,91.45215 405.0141,98.4459 L405.0141,114 L400.0905,114 L400.0905,84.0108 L404.06295,84.0108 L404.7903,88.09515 L405.07005,88.09515 C406.9164,84.96195 410.32935,83.4513 413.91015,83.4513 C418.49805,83.4513 421.63125,85.07385 423.08595,88.4868 L423.3657,88.4868 C425.3799,85.07385 429.0726,83.4513 432.9891,83.4513 Z" id="Guideline-System" fill="#FFFFFF"></path>
    </g>
</svg>
